REM DIRINDEX 1\2,1\3,1\4,1\5
REM DIRNAME folder01,folder02,folder03,folder04,folder05
TITLE ""
FILE "Round-10-234-235.mp3" MP3
  TRACK 01 AUDIO
    TITLE "0:"
    INDEX 01 00:00:00
  TRACK 02 AUDIO
    TITLE "2:cjc093_2635"
    INDEX 01 00:00:01
  TRACK 03 AUDIO
    TITLE "0:"
    INDEX 01 00:01:09
  TRACK 04 AUDIO
    TITLE "3:cjc093_2636"
    INDEX 01 00:01:30
  TRACK 05 AUDIO
    TITLE "0:"
    INDEX 01 00:02:47
  TRACK 06 AUDIO
    TITLE "4:cjc093_2637"
    INDEX 01 00:03:19
  TRACK 07 AUDIO
    TITLE "0:"
    INDEX 01 00:06:69
  TRACK 08 AUDIO
    TITLE "3:cjc093_2638"
    INDEX 01 00:08:07
  TRACK 09 AUDIO
    TITLE "0:"
    INDEX 01 00:09:12
  TRACK 10 AUDIO
    TITLE "4:cjc093_2639"
    INDEX 01 00:09:57
  TRACK 11 AUDIO
    TITLE "0:"
    INDEX 01 00:12:42
  TRACK 12 AUDIO
    TITLE "2:cjc093_2640"
    INDEX 01 00:13:53
  TRACK 13 AUDIO
    TITLE "0:"
    INDEX 01 00:14:60
  TRACK 14 AUDIO
    TITLE "3:cjc093_2641"
    INDEX 01 00:15:15
  TRACK 15 AUDIO
    TITLE "0:"
    INDEX 01 00:18:09
  TRACK 16 AUDIO
    TITLE "4:cjc093_2642"
    INDEX 01 00:18:23
  TRACK 17 AUDIO
    TITLE "0:"
    INDEX 01 00:21:15
  TRACK 18 AUDIO
    TITLE "2:cjc093_2643"
    INDEX 01 00:22:27
  TRACK 19 AUDIO
    TITLE "0:"
    INDEX 01 00:23:28
  TRACK 20 AUDIO
    TITLE "3:cjc093_2644"
    INDEX 01 00:23:67
  TRACK 21 AUDIO
    TITLE "0:"
    INDEX 01 00:26:34
  TRACK 22 AUDIO
    TITLE "4:cjc093_2645"
    INDEX 01 00:27:02
  TRACK 23 AUDIO
    TITLE "0:"
    INDEX 01 00:30:12
  TRACK 24 AUDIO
    TITLE "3:cjc093_2646"
    INDEX 01 00:31:22
  TRACK 25 AUDIO
    TITLE "0:"
    INDEX 01 00:32:60
  TRACK 26 AUDIO
    TITLE "4:cjc093_2647"
    INDEX 01 00:32:72
  TRACK 27 AUDIO
    TITLE "0:"
    INDEX 01 00:35:63
  TRACK 28 AUDIO
    TITLE "2:cjc093_2648"
    INDEX 01 00:36:72
  TRACK 29 AUDIO
    TITLE "0:"
    INDEX 01 00:37:69
  TRACK 30 AUDIO
    TITLE "3:cjc093_2649"
    INDEX 01 00:38:31
  TRACK 31 AUDIO
    TITLE "0:"
    INDEX 01 00:40:30
  TRACK 32 AUDIO
    TITLE "4:cjc093_2650"
    INDEX 01 00:40:50
  TRACK 33 AUDIO
    TITLE "0:"
    INDEX 01 00:43:70
  TRACK 34 AUDIO
    TITLE "2:cjc093_2651"
    INDEX 01 00:45:08
  TRACK 35 AUDIO
    TITLE "0:"
    INDEX 01 00:46:21
  TRACK 36 AUDIO
    TITLE "3:cjc093_2652"
    INDEX 01 00:46:56
  TRACK 37 AUDIO
    TITLE "0:"
    INDEX 01 00:49:18
  TRACK 38 AUDIO
    TITLE "4:cjc093_2653"
    INDEX 01 00:49:49
  TRACK 39 AUDIO
    TITLE "0:"
    INDEX 01 00:52:61
  TRACK 40 AUDIO
    TITLE "2:cjc093_2654"
    INDEX 01 00:53:72
  TRACK 41 AUDIO
    TITLE "0:"
    INDEX 01 00:55:22
  TRACK 42 AUDIO
    TITLE "3:cjc093_2655"
    INDEX 01 00:55:65
  TRACK 43 AUDIO
    TITLE "0:"
    INDEX 01 00:57:72
  TRACK 44 AUDIO
    TITLE "4:cjc093_2656"
    INDEX 01 00:58:28
  TRACK 45 AUDIO
    TITLE "0:"
    INDEX 01 01:02:69
  TRACK 46 AUDIO
    TITLE "3:cjc093_2657"
    INDEX 01 01:04:07
  TRACK 47 AUDIO
    TITLE "0:"
    INDEX 01 01:05:46
  TRACK 48 AUDIO
    TITLE "4:cjc093_2658"
    INDEX 01 01:06:14
  TRACK 49 AUDIO
    TITLE "0:"
    INDEX 01 01:09:56
  TRACK 50 AUDIO
    TITLE "2:cjc093_2659"
    INDEX 01 01:10:67
  TRACK 51 AUDIO
    TITLE "0:"
    INDEX 01 01:11:66
  TRACK 52 AUDIO
    TITLE "3:cjc093_2660"
    INDEX 01 01:12:23
  TRACK 53 AUDIO
    TITLE "0:"
    INDEX 01 01:14:21
  TRACK 54 AUDIO
    TITLE "4:cjc093_2661"
    INDEX 01 01:14:68
  TRACK 55 AUDIO
    TITLE "0:"
    INDEX 01 01:17:16
  TRACK 56 AUDIO
    TITLE "3:cjc093_2662"
    INDEX 01 01:18:25
  TRACK 57 AUDIO
    TITLE "0:"
    INDEX 01 01:20:22
  TRACK 58 AUDIO
    TITLE "4:cjc093_2663"
    INDEX 01 01:20:38
  TRACK 59 AUDIO
    TITLE "0:"
    INDEX 01 01:23:73
